<svg xmlns="http://www.w3.org/2000/svg" width="68" height="68" viewBox="0 0 68 68">
  <g id="Group_5" data-name="Group 5" transform="translate(0.123)">
    <circle id="Ellipse_2" data-name="Ellipse 2" cx="34" cy="34" r="34" transform="translate(-0.123)" fill="#fbb03b"/>
    <path id="hearts" d="M592.263,579.958a4.438,4.438,0,0,1,3.313,7.381c-.814.917-7.751,7.411-7.751,7.411s-6.952-6.494-7.766-7.426a4.386,4.386,0,0,1-1.109-2.929,4.438,4.438,0,1,1,8.875,0,4.438,4.438,0,0,1,4.438-4.438m0-2.958a7.356,7.356,0,0,0-4.438,1.479,7.4,7.4,0,0,0-9.979,10.805c.831.953,6.3,6.077,7.96,7.624a2.958,2.958,0,0,0,4.041,0c1.651-1.546,7.1-6.656,7.942-7.607a7.4,7.4,0,0,0-5.526-12.3Z" transform="translate(-553.594 -553.313)" fill="#fff" fill-rule="evenodd"/>
  </g>
</svg>
