<svg xmlns="http://www.w3.org/2000/svg" width="68" height="68" viewBox="0 0 68 68">
  <g id="Group_4" data-name="Group 4" transform="translate(-0.043)">
    <circle id="Ellipse_1" data-name="Ellipse 1" cx="34" cy="34" r="34" transform="translate(0.043)" fill="#fbb03b"/>
    <path id="cart_2" d="M435.143,528.271a2.948,2.948,0,0,0,2.887-2.379l1.479-7.4a2.958,2.958,0,0,0-2.895-3.538H421.888v-1.479A1.479,1.479,0,0,0,420.409,512h-2.945a1.479,1.479,0,1,0,0,2.958h1.479V529.75a2.958,2.958,0,1,0,2.945,2.958H432.2a2.947,2.947,0,1,0,2.947-2.958H421.888v-1.479Zm1.479-10.354-1.479,7.4H421.888v-7.4h14.727Z" transform="translate(-393.548 -489.792)" fill="#fff" fill-rule="evenodd"/>
  </g>
</svg>
